<?xml version="1.0" encoding="utf-8"?>
<!-- Generator: Adobe Illustrator 24.1.1, SVG Export Plug-In . SVG Version: 6.00 Build 0)  -->
<svg version="1.1" id="Capa_1" xmlns="http://www.w3.org/2000/svg" xmlns:xlink="http://www.w3.org/1999/xlink" x="0px" y="0px"
	 viewBox="0 0 78 64" style="enable-background:new 0 0 78 64;" xml:space="preserve">
<style type="text/css">
	.st0{fill:url(#SVGID_1_);}
	.st1{fill:#6A297A;}
	.st2{fill:url(#SVGID_2_);}
	.st3{fill:#FFFFFF;}
	.st4{opacity:0.3;fill:#3A1244;}
	.st5{fill:url(#SVGID_3_);}
</style>
<g>
	<g>
		<linearGradient id="SVGID_1_" gradientUnits="userSpaceOnUse" x1="6.8033" y1="39.9247" x2="71.5713" y2="39.9247">
			<stop  offset="0" style="stop-color:#FDB000"/>
			<stop  offset="0.7" style="stop-color:#FD5D23"/>
		</linearGradient>
		<path class="st0" d="M50.9,25.5l-33.4,7.46c0,0-8.98,3.85-10.55,11.22c-1.57,7.36,9.1,11.57,25.99,9.98
			c16.89-1.6,36.84-9.14,38.51-19.15C73.13,25,56.51,25.03,50.9,25.5z"/>
		<path class="st1" d="M76.88,33.93c-1.27-6.22-12.06-9.57-26.23-8.96c9.27,0.17,16.03,2.71,16.92,7.03
			c1.3,6.37-10.68,14.19-26.76,17.46c-16.09,3.27-30.18,0.76-31.49-5.61c-0.83-4.05,3.72-8.68,11.27-12.36
			C8.53,36.42,0.92,43.26,2.12,49.14c1.68,8.17,19.77,11.39,40.41,7.19C63.17,52.13,78.55,42.1,76.88,33.93z"/>
		<g>
			<linearGradient id="SVGID_2_" gradientUnits="userSpaceOnUse" x1="16.5132" y1="37.7958" x2="61.0819" y2="37.7958">
				<stop  offset="0" style="stop-color:#6A297A"/>
				<stop  offset="0.0245" style="stop-color:#70287B"/>
				<stop  offset="0.2599" style="stop-color:#A21D82"/>
				<stop  offset="0.4818" style="stop-color:#C91588"/>
				<stop  offset="0.6841" style="stop-color:#E60F8D"/>
				<stop  offset="0.8602" style="stop-color:#F70B8F"/>
				<stop  offset="0.9904" style="stop-color:#FD0A90"/>
			</linearGradient>
			<path class="st2" d="M61.08,54.29c0,4.26-3.47,7.71-7.74,7.71H24.25c-4.27,0-7.74-3.45-7.74-7.71V21.31
				c0-4.26,3.47-7.72,7.74-7.72h29.09c4.27,0,7.74,3.45,7.74,7.72V54.29z"/>
			<g>
				<path class="st3" d="M36.7,40.68l2.64,0.88c1.34,0.42,2.09,1.11,2.19,1.37c0.03,0.13,0.07,0.29,0.07,0.49
					c0,0.35-0.09,0.65-0.25,0.91c2.18-0.59,4.13-1.37,5.68-2.24c-0.49-2.6-2.53-4.45-6.11-5.54l-2.58-0.81
					c-1.4-0.42-2.09-1.01-2.09-1.82c0-1.07,0.91-1.79,2.38-1.79c1.57,0,2.35,0.68,2.35,2.08h5.45c0-3.87-2.55-6.38-6.33-6.9v-3.58
					h-2.51v3.55c-1.99,0.23-3.62,0.94-4.9,2.18c-1.24,1.24-1.86,2.77-1.86,4.62C30.86,36.13,31.64,39.32,36.7,40.68z"/>
				<path class="st3" d="M37.31,45.14c-0.78-0.36-1.19-1.03-1.26-1.88h-5.52c0,0.7,0.09,1.35,0.26,1.96
					C32.65,45.48,34.89,45.47,37.31,45.14z"/>
				<path class="st4" d="M55.55,38.27c-0.55-2.67-5.18-4.11-11.26-3.85c3.98,0.07,6.89,1.17,7.26,3.02
					c0.56,2.74-4.58,6.09-11.49,7.5c-6.91,1.41-12.96,0.33-13.52-2.41c-0.36-1.74,1.6-3.73,4.84-5.31
					c-5.17,2.12-8.44,5.06-7.92,7.58c0.72,3.51,8.49,4.89,17.35,3.09C49.67,46.08,56.27,41.78,55.55,38.27z"/>
				<path class="st3" d="M54.89,35.61c-0.55-2.67-5.18-4.11-11.26-3.85c3.98,0.07,6.89,1.17,7.26,3.02
					c0.56,2.74-4.58,6.09-11.49,7.5c-6.91,1.41-12.96,0.33-13.52-2.41c-0.36-1.74,1.6-3.73,4.84-5.31
					c-5.17,2.12-8.44,5.06-7.92,7.58c0.72,3.51,8.49,4.89,17.35,3.09C49.01,43.43,55.61,39.12,54.89,35.61z"/>
			</g>
			<g>
				<path class="st3" d="M27.38,18.66c0,1.2-0.98,2.17-2.18,2.17c-1.2,0-2.18-0.97-2.18-2.17c0-1.2,0.98-2.17,2.18-2.17
					C26.4,16.49,27.38,17.46,27.38,18.66z"/>
				<path class="st3" d="M54.58,18.66c0,1.2-0.98,2.17-2.18,2.17c-1.2,0-2.18-0.97-2.18-2.17c0-1.2,0.98-2.17,2.18-2.17
					C53.6,16.49,54.58,17.46,54.58,18.66z"/>
				<g>
					<linearGradient id="SVGID_3_" gradientUnits="userSpaceOnUse" x1="24.2783" y1="10.656" x2="53.362" y2="10.656">
						<stop  offset="0" style="stop-color:#FDB000"/>
						<stop  offset="0.7" style="stop-color:#FD5D23"/>
					</linearGradient>
					<path class="st5" d="M52.44,19.31c-0.51,0-0.92-0.41-0.92-0.92v-1.9c0-6.98-5.7-12.66-12.71-12.66
						c-7.01,0-12.7,5.68-12.7,12.66v1.9c0,0.51-0.41,0.92-0.92,0.92c-0.51,0-0.92-0.41-0.92-0.92v-1.9C24.28,8.5,30.8,2,38.82,2
						c8.02,0,14.54,6.5,14.54,14.49v1.9C53.36,18.9,52.95,19.31,52.44,19.31z"/>
				</g>
			</g>
		</g>
		<path class="st1" d="M76.88,33.93c-0.64-3.13-3.7-5.53-8.38-7.07c-0.65,1-1.31,1.99-1.98,2.97c0.52,0.66,0.88,1.38,1.04,2.16
			c1.3,6.37-10.68,14.19-26.76,17.46c-16.09,3.27-30.18,0.76-31.49-5.61c-0.43-2.11,0.6-4.37,2.75-6.58
			c-0.24-0.36-0.48-0.72-0.72-1.08C4.86,40.3,1.27,44.96,2.12,49.14c1.68,8.17,19.77,11.39,40.41,7.19
			C63.17,52.13,78.55,42.1,76.88,33.93z"/>
	</g>
</g>
</svg>
